<mxfile host="65bd71144e">
    <diagram id="T9uuaTeBy4bPSP1g8a4x" name="Page-1">
        <mxGraphModel dx="956" dy="569" grid="1" gridSize="10" guides="1" tooltips="1" connect="1" arrows="1" fold="1" page="1" pageScale="1" pageWidth="827" pageHeight="1169" background="#FFFFFF" math="0" shadow="0">
            <root>
                <mxCell id="0"/>
                <mxCell id="1" parent="0"/>
                <mxCell id="203" value="" style="rounded=0;whiteSpace=wrap;html=1;strokeColor=none;" vertex="1" parent="1">
                    <mxGeometry x="114" y="70" width="596" height="260" as="geometry"/>
                </mxCell>
                <mxCell id="182" value="" style="endArrow=none;dashed=1;html=1;strokeWidth=1;rounded=0;startSize=3;endSize=3;fillColor=#d5e8d4;strokeColor=#82b366;" edge="1" parent="1">
                    <mxGeometry width="50" height="50" relative="1" as="geometry">
                        <mxPoint x="180" y="210" as="sourcePoint"/>
                        <mxPoint x="640" y="210" as="targetPoint"/>
                    </mxGeometry>
                </mxCell>
                <mxCell id="183" value="" style="endArrow=none;dashed=1;html=1;strokeWidth=1;rounded=0;startSize=3;endSize=3;fillColor=#f8cecc;strokeColor=#b85450;" edge="1" parent="1">
                    <mxGeometry width="50" height="50" relative="1" as="geometry">
                        <mxPoint x="180" y="190" as="sourcePoint"/>
                        <mxPoint x="385.48106908893027" y="190" as="targetPoint"/>
                    </mxGeometry>
                </mxCell>
                <mxCell id="186" value="" style="endArrow=none;dashed=1;html=1;strokeWidth=1;rounded=0;startSize=3;endSize=3;fillColor=#f5f5f5;strokeColor=#666666;" edge="1" parent="1">
                    <mxGeometry width="50" height="50" relative="1" as="geometry">
                        <mxPoint x="385" y="280" as="sourcePoint"/>
                        <mxPoint x="385" y="170" as="targetPoint"/>
                    </mxGeometry>
                </mxCell>
                <mxCell id="141" value="" style="endArrow=none;html=1;" edge="1" parent="1">
                    <mxGeometry width="50" height="50" relative="1" as="geometry">
                        <mxPoint x="179.99847338789007" y="280" as="sourcePoint"/>
                        <mxPoint x="179.99847338789007" y="80" as="targetPoint"/>
                    </mxGeometry>
                </mxCell>
                <mxCell id="142" value="" style="endArrow=none;html=1;" edge="1" parent="1">
                    <mxGeometry width="50" height="50" relative="1" as="geometry">
                        <mxPoint x="640" y="280" as="sourcePoint"/>
                        <mxPoint x="180" y="280" as="targetPoint"/>
                    </mxGeometry>
                </mxCell>
                <mxCell id="143" value="0" style="rounded=0;whiteSpace=wrap;html=1;strokeColor=none;fillColor=none;" vertex="1" parent="1">
                    <mxGeometry x="170" y="280" width="20" height="20" as="geometry"/>
                </mxCell>
                <mxCell id="144" value="0" style="rounded=0;whiteSpace=wrap;html=1;strokeColor=none;fillColor=none;align=center;" vertex="1" parent="1">
                    <mxGeometry x="160" y="270" width="20" height="20" as="geometry"/>
                </mxCell>
                <mxCell id="145" value="PD" style="rounded=0;whiteSpace=wrap;html=1;strokeColor=none;fillColor=none;" vertex="1" parent="1">
                    <mxGeometry x="460" y="280" width="40" height="20" as="geometry"/>
                </mxCell>
                <mxCell id="168" value="BAC" style="rounded=0;whiteSpace=wrap;html=1;strokeColor=none;fillColor=none;fontColor=#6C8EBF;" vertex="1" parent="1">
                    <mxGeometry x="140" y="110" width="40" height="20" as="geometry"/>
                </mxCell>
                <mxCell id="171" value="" style="endArrow=none;html=1;" edge="1" parent="1">
                    <mxGeometry width="50" height="50" relative="1" as="geometry">
                        <mxPoint x="639.9993137152305" y="280" as="sourcePoint"/>
                        <mxPoint x="639.9993137152305" y="80" as="targetPoint"/>
                    </mxGeometry>
                </mxCell>
                <mxCell id="172" value="100%" style="rounded=0;whiteSpace=wrap;html=1;strokeColor=none;fillColor=none;fontColor=#6C8EBF;" vertex="1" parent="1">
                    <mxGeometry x="640" y="110" width="40" height="20" as="geometry"/>
                </mxCell>
                <mxCell id="173" value="0" style="rounded=0;whiteSpace=wrap;html=1;strokeColor=none;fillColor=none;align=center;" vertex="1" parent="1">
                    <mxGeometry x="640" y="270" width="20" height="20" as="geometry"/>
                </mxCell>
                <mxCell id="175" value="cEAC" style="rounded=0;whiteSpace=wrap;html=1;strokeColor=none;fillColor=none;fontStyle=2;fontColor=#B85450;" vertex="1" parent="1">
                    <mxGeometry x="140" y="90" width="40" height="20" as="geometry"/>
                </mxCell>
                <mxCell id="177" value="AT" style="rounded=0;whiteSpace=wrap;html=1;strokeColor=none;fillColor=none;fontStyle=2" vertex="1" parent="1">
                    <mxGeometry x="360" y="280" width="50" height="20" as="geometry"/>
                </mxCell>
                <mxCell id="178" value="PV" style="rounded=0;whiteSpace=wrap;html=1;strokeColor=none;fillColor=none;fontStyle=2;fontColor=#6C8EBF;" vertex="1" parent="1">
                    <mxGeometry x="150" y="160" width="30" height="20" as="geometry"/>
                </mxCell>
                <mxCell id="179" value="AC" style="rounded=0;whiteSpace=wrap;html=1;strokeColor=none;fillColor=none;fontStyle=2;fontColor=#B85450;" vertex="1" parent="1">
                    <mxGeometry x="150" y="180" width="30" height="20" as="geometry"/>
                </mxCell>
                <mxCell id="181" value="EV" style="rounded=0;whiteSpace=wrap;html=1;strokeColor=none;fillColor=none;fontStyle=2;fontColor=#82B366;" vertex="1" parent="1">
                    <mxGeometry x="150" y="200" width="30" height="20" as="geometry"/>
                </mxCell>
                <mxCell id="187" value="" style="endArrow=none;dashed=1;html=1;strokeWidth=1;rounded=0;startSize=3;endSize=3;fillColor=#f5f5f5;strokeColor=#666666;" edge="1" parent="1">
                    <mxGeometry width="50" height="50" relative="1" as="geometry">
                        <mxPoint x="590" y="280" as="sourcePoint"/>
                        <mxPoint x="590" y="100" as="targetPoint"/>
                    </mxGeometry>
                </mxCell>
                <mxCell id="190" value="&lt;b style=&quot;font-style: normal;&quot;&gt;Time&lt;/b&gt;" style="rounded=0;whiteSpace=wrap;html=1;strokeColor=none;fillColor=none;fontStyle=2;rotation=0;" vertex="1" parent="1">
                    <mxGeometry x="180" y="300" width="465.01" height="20" as="geometry"/>
                </mxCell>
                <mxCell id="193" value="tEAC" style="rounded=0;whiteSpace=wrap;html=1;strokeColor=none;fillColor=none;fontStyle=2" vertex="1" parent="1">
                    <mxGeometry x="570" y="280" width="40" height="20" as="geometry"/>
                </mxCell>
                <mxCell id="195" value="&lt;b&gt;Progress&lt;/b&gt;" style="rounded=0;whiteSpace=wrap;html=1;strokeColor=none;fillColor=none;rotation=-90;" vertex="1" parent="1">
                    <mxGeometry x="590" y="170" width="200" height="20" as="geometry"/>
                </mxCell>
                <mxCell id="196" value="&lt;b&gt;Cost&lt;/b&gt;" style="rounded=0;whiteSpace=wrap;html=1;strokeColor=none;fillColor=none;rotation=-90;" vertex="1" parent="1">
                    <mxGeometry x="30" y="170" width="200" height="20" as="geometry"/>
                </mxCell>
                <mxCell id="198" value="" style="endArrow=none;dashed=1;html=1;strokeWidth=1;rounded=0;startSize=3;endSize=3;fillColor=#dae8fc;strokeColor=#6c8ebf;" edge="1" parent="1">
                    <mxGeometry width="50" height="50" relative="1" as="geometry">
                        <mxPoint x="180" y="170" as="sourcePoint"/>
                        <mxPoint x="640" y="170" as="targetPoint"/>
                    </mxGeometry>
                </mxCell>
                <mxCell id="199" value="WS" style="rounded=0;whiteSpace=wrap;html=1;strokeColor=none;fillColor=none;fontStyle=2;fontColor=#6C8EBF;" vertex="1" parent="1">
                    <mxGeometry x="640" y="160" width="30" height="20" as="geometry"/>
                </mxCell>
                <mxCell id="200" value="WP" style="rounded=0;whiteSpace=wrap;html=1;strokeColor=none;fillColor=none;fontStyle=2;fontColor=#82B366;" vertex="1" parent="1">
                    <mxGeometry x="640" y="200" width="30" height="20" as="geometry"/>
                </mxCell>
                <mxCell id="202" value="" style="endArrow=none;dashed=1;html=1;strokeWidth=1;rounded=0;startSize=3;endSize=3;fillColor=#f8cecc;strokeColor=#b85450;" edge="1" parent="1">
                    <mxGeometry width="50" height="50" relative="1" as="geometry">
                        <mxPoint x="180" y="100" as="sourcePoint"/>
                        <mxPoint x="590" y="100" as="targetPoint"/>
                        <Array as="points"/>
                    </mxGeometry>
                </mxCell>
                <mxCell id="153" value="" style="endArrow=none;html=1;fillColor=#dae8fc;strokeColor=#6c8ebf;strokeWidth=2;rounded=0;" edge="1" parent="1">
                    <mxGeometry width="50" height="50" relative="1" as="geometry">
                        <mxPoint x="180" y="280" as="sourcePoint"/>
                        <mxPoint x="480" y="120" as="targetPoint"/>
                    </mxGeometry>
                </mxCell>
                <mxCell id="154" value="" style="endArrow=none;html=1;fillColor=#d5e8d4;strokeColor=#82b366;strokeWidth=2;rounded=0;" edge="1" parent="1">
                    <mxGeometry width="50" height="50" relative="1" as="geometry">
                        <mxPoint x="180" y="280" as="sourcePoint"/>
                        <mxPoint x="385.48106908893027" y="210" as="targetPoint"/>
                    </mxGeometry>
                </mxCell>
                <mxCell id="155" value="" style="endArrow=none;html=1;fillColor=#f8cecc;strokeColor=#b85450;strokeWidth=2;rounded=0;" edge="1" parent="1">
                    <mxGeometry width="50" height="50" relative="1" as="geometry">
                        <mxPoint x="180" y="280" as="sourcePoint"/>
                        <mxPoint x="385.48106908893027" y="190" as="targetPoint"/>
                    </mxGeometry>
                </mxCell>
                <mxCell id="156" value="" style="endArrow=none;html=1;fillColor=#d5e8d4;strokeColor=#82b366;dashed=1;strokeWidth=2;rounded=0;" edge="1" parent="1">
                    <mxGeometry width="50" height="50" relative="1" as="geometry">
                        <mxPoint x="385.48106908893027" y="210" as="sourcePoint"/>
                        <mxPoint x="590" y="140" as="targetPoint"/>
                    </mxGeometry>
                </mxCell>
                <mxCell id="157" value="" style="endArrow=none;html=1;fillColor=#f8cecc;strokeColor=#b85450;dashed=1;strokeWidth=2;rounded=0;" edge="1" parent="1">
                    <mxGeometry width="50" height="50" relative="1" as="geometry">
                        <mxPoint x="385.48106908893027" y="190" as="sourcePoint"/>
                        <mxPoint x="590" y="100" as="targetPoint"/>
                    </mxGeometry>
                </mxCell>
                <mxCell id="210" value="SV" style="endArrow=none;html=1;rounded=0;strokeWidth=1;fontColor=#000000;startSize=1;endSize=1;" edge="1" parent="1">
                    <mxGeometry width="50" height="50" relative="1" as="geometry">
                        <mxPoint x="240" y="210" as="sourcePoint"/>
                        <mxPoint x="240" y="170" as="targetPoint"/>
                    </mxGeometry>
                </mxCell>
                <mxCell id="211" value="CV" style="endArrow=none;html=1;rounded=0;strokeWidth=1;fontColor=#000000;startSize=1;endSize=1;" edge="1" parent="1">
                    <mxGeometry width="50" height="50" relative="1" as="geometry">
                        <mxPoint x="270" y="210" as="sourcePoint"/>
                        <mxPoint x="270" y="190" as="targetPoint"/>
                    </mxGeometry>
                </mxCell>
                <mxCell id="212" value="" style="endArrow=none;dashed=1;html=1;strokeWidth=1;rounded=0;startSize=3;endSize=3;fillColor=#dae8fc;strokeColor=#6c8ebf;entryX=0;entryY=0.5;entryDx=0;entryDy=0;" edge="1" parent="1" target="172">
                    <mxGeometry width="50" height="50" relative="1" as="geometry">
                        <mxPoint x="180" y="120" as="sourcePoint"/>
                        <mxPoint x="640" y="120" as="targetPoint"/>
                        <Array as="points"/>
                    </mxGeometry>
                </mxCell>
            </root>
        </mxGraphModel>
    </diagram>
</mxfile>